<?xml version="1.0" standalone="no"?>
<!DOCTYPE svg PUBLIC "-//W3C//DTD SVG 20010904//EN"
 "http://www.w3.org/TR/2001/REC-SVG-20010904/DTD/svg10.dtd">
<svg version="1.0" xmlns="http://www.w3.org/2000/svg"
 width="512.000000pt" height="512.000000pt" viewBox="0 0 512.000000 512.000000"
 preserveAspectRatio="xMidYMid meet">
<metadata>
Created by potrace 1.14, written by Peter Selinger 2001-2017
</metadata>
<g transform="translate(0.000000,512.000000) scale(0.100000,-0.100000)"
fill="#000000" stroke="none">
<path d="M2498 4850 c-57 -17 -94 -59 -158 -178 l-64 -119 -132 -25 c-82 -16
-147 -34 -169 -48 -79 -49 -113 -172 -69 -253 10 -20 58 -76 106 -126 l86 -90
-15 -108 c-21 -157 -20 -195 11 -248 36 -60 99 -97 169 -98 44 0 71 9 170 56
64 31 121 57 126 57 4 0 62 -26 127 -57 145 -69 195 -74 271 -27 80 49 108
131 88 254 -2 14 -6 41 -9 60 -3 19 -8 51 -11 70 -5 33 -1 40 80 125 47 50 95
108 107 130 44 83 16 199 -61 250 -35 23 -132 49 -265 69 -22 4 -41 8 -41 9
-1 1 -28 52 -61 112 -32 61 -73 124 -91 141 -49 47 -127 65 -195 44z"/>
<path d="M738 4540 c-52 -28 -72 -58 -118 -178 -23 -59 -47 -112 -53 -119 -7
-6 -60 -30 -119 -53 -124 -48 -154 -68 -179 -124 -34 -74 -19 -154 38 -208 15
-15 76 -45 134 -68 59 -23 114 -47 122 -53 8 -7 34 -61 57 -122 24 -60 54
-122 68 -137 60 -65 150 -78 227 -34 48 29 67 58 110 173 47 125 44 121 120
149 177 66 224 99 242 173 14 53 7 97 -22 147 -27 45 -45 56 -195 114 l-95 37
-33 84 c-54 137 -80 182 -118 208 -49 34 -135 39 -186 11z"/>
<path d="M4215 4540 c-53 -27 -69 -51 -124 -187 l-46 -115 -118 -47 c-65 -25
-130 -57 -143 -70 -74 -72 -78 -183 -8 -255 24 -25 66 -47 152 -81 l120 -46
33 -87 c61 -163 82 -194 145 -220 69 -29 150 -13 200 39 16 17 48 79 75 147
26 64 53 120 60 124 8 4 61 26 119 48 116 46 161 80 179 139 16 53 14 89 -8
137 -25 56 -55 76 -179 125 -59 22 -112 45 -118 50 -6 5 -30 59 -53 119 -24
60 -52 121 -63 135 -49 62 -149 82 -223 45z"/>
<path d="M1298 3622 c-42 -21 -59 -57 -51 -106 5 -30 14 -44 46 -65 184 -120
336 -378 360 -609 9 -87 51 -129 119 -118 71 11 91 60 73 181 -42 275 -208
555 -411 690 -63 42 -93 48 -136 27z"/>
<path d="M3750 3632 c-48 -16 -170 -117 -240 -198 -132 -153 -238 -418 -243
-611 -3 -94 127 -138 178 -59 9 14 18 35 19 48 3 21 18 126 21 138 9 47 59
163 106 250 45 82 132 177 210 231 64 43 85 80 72 129 -13 50 -77 88 -123 72z"/>
<path d="M2495 3350 l-29 -31 -1 -264 c0 -252 1 -265 21 -292 27 -36 80 -51
120 -32 56 27 60 49 59 332 l-1 256 -29 31 c-41 43 -99 43 -140 0z"/>
<path d="M181 3043 c-17 -9 -46 -46 -78 -101 -94 -160 -97 -169 -97 -257 -1
-93 20 -147 81 -209 31 -31 419 -263 838 -500 177 -100 226 -129 230 -136 3
-4 5 -306 6 -671 0 -643 1 -666 21 -718 25 -65 90 -134 155 -164 l48 -22 1154
-3 c1289 -3 1216 -6 1309 67 34 27 59 59 78 98 l29 58 3 677 3 678 92 54 c50
29 153 89 227 131 74 43 191 111 260 150 506 292 508 294 550 380 26 53 35
152 19 210 -6 19 -39 86 -75 148 -102 176 -108 177 -310 61 -82 -48 -192 -111
-244 -141 -52 -30 -102 -58 -110 -64 -8 -5 -132 -76 -275 -159 l-260 -150
-1275 0 c-1217 0 -1276 1 -1305 18 -16 10 -50 30 -75 44 -25 14 -146 84 -270
155 -124 72 -243 141 -265 153 -22 12 -52 31 -67 41 -14 11 -28 19 -31 19 -2
0 -70 38 -151 84 -81 47 -156 84 -168 83 -11 -1 -32 -7 -47 -14z"/>
</g>
</svg>
